<?xml version="1.0" encoding="UTF-8"?>
<!DOCTYPE svg PUBLIC "-//W3C//DTD SVG 1.1//EN" "http://www.w3.org/Graphics/SVG/1.1/DTD/svg11.dtd">
<svg xmlns="http://www.w3.org/2000/svg" version="1.1" width="52px" height="52px" style="shape-rendering:geometricPrecision; text-rendering:geometricPrecision; image-rendering:optimizeQuality; fill-rule:evenodd; clip-rule:evenodd" xmlns:xlink="http://www.w3.org/1999/xlink">
<g><path style="opacity:0.941" fill="#000000" d="M 7.5,-0.5 C 19.5,-0.5 31.5,-0.5 43.5,-0.5C 43.7828,0.28913 44.2828,0.955796 45,1.5C 45.6667,6.5 45.6667,11.5 45,16.5C 41.9858,13.5534 40.6524,9.88672 41,5.5C 40.5,5 40,4.5 39.5,4C 30.1667,3.33333 20.8333,3.33333 11.5,4C 11,4.5 10.5,5 10,5.5C 9.33333,18.8333 9.33333,32.1667 10,45.5C 10.5,46 11,46.5 11.5,47C 20.8333,47.6667 30.1667,47.6667 39.5,47C 40,46.5 40.5,46 41,45.5C 40.6524,41.1133 41.9858,37.4466 45,34.5C 45.6667,39.5 45.6667,44.5 45,49.5C 44.2828,50.0442 43.7828,50.7109 43.5,51.5C 31.5,51.5 19.5,51.5 7.5,51.5C 7.21719,50.7109 6.71719,50.0442 6,49.5C 5.33333,33.5 5.33333,17.5 6,1.5C 6.71719,0.955796 7.21719,0.28913 7.5,-0.5 Z"/></g>
<g><path style="opacity:0.927" fill="#000000" d="M 31.5,11.5 C 32.9217,11.7086 34.255,12.2086 35.5,13C 40.2593,16.715 44.5926,20.8816 48.5,25.5C 43.6578,30.508 38.4911,35.1747 33,39.5C 31.6253,37.0632 31.1253,34.3965 31.5,31.5C 26.8333,31.5 22.1667,31.5 17.5,31.5C 17.5,27.5 17.5,23.5 17.5,19.5C 22.1667,19.5 26.8333,19.5 31.5,19.5C 31.5,16.8333 31.5,14.1667 31.5,11.5 Z"/></g>
</svg>
